<svg width="2800" height="12707" viewBox="0 0 2800 12707" fill="none" xmlns="http://www.w3.org/2000/svg">
<g clip-path="url(#clip0)">
<g filter="url(#filter0_f)">
<path d="M954.244 11216.6C873.198 11241 893.309 11362 802.913 11363.8C598.149 11367.9 393.339 11175.4 210.465 11231.6C82.8662 11270.9 261.592 11428.2 267.636 11528.5C272.819 11614.5 165.302 11710.5 243.555 11781C333.606 11862 510.212 11877.8 650.982 11873.5C773.106 11869.7 840.642 11743.7 963.006 11758.8C1052.22 11769.8 1019.82 11885.8 1090.66 11927.9C1172.94 11976.7 1343.96 12073.6 1384.47 12008.9C1443.14 11915.2 1122.29 11778.8 1227.59 11709.1C1371.37 11613.9 1734.89 11829.6 1836.07 11710C1920.88 11609.6 1508.35 11621.3 1364.38 11547.3C1316.74 11522.8 1319.81 11473.2 1300.54 11434.8C1267.99 11369.8 1285.24 11287.8 1210.96 11241C1144.11 11198.9 1031.66 11193.3 954.244 11216.6Z" fill="url(#paint0_linear)" fill-opacity="0.2"/>
</g>
<g filter="url(#filter1_f)">
<path d="M1333.09 863.009C1416.44 877.999 1393.47 982.532 1284.12 1021.01C1087.63 1090.15 903.642 1044.95 700 1085.78C658.053 1094.19 687.447 1128.38 654.191 1147.31C623.553 1164.75 576.732 1163.47 539.764 1177C469.101 1202.85 413.069 1240.98 339.797 1262.34C221.011 1296.96 73.504 1354 -15.5209 1338.83C-90.313 1326.09 18.6993 1242.94 -1.93488 1204.12C-27.0734 1156.83 -262.764 1135.45 -147.621 1090.31C51.2289 1012.35 298.744 1121.01 459.424 1023.24C615.634 928.194 291.769 880.446 364.475 778.722C407.244 718.883 604.941 668.179 715.585 664.844C835.073 661.242 902.462 709.661 923.587 761.868C943.389 810.803 742.866 918.055 826.392 938.685C944.597 967.88 1205.55 840.07 1333.09 863.009Z" fill="url(#paint1_linear)" fill-opacity="0.25"/>
</g>
<g filter="url(#filter2_f)">
<path d="M2269.04 2060.76C2237.3 2016.53 2261.25 1960.73 2211.95 1923.93C2157.41 1883.22 2071.72 1845.78 1997.76 1858.27C1922.43 1870.99 1937.67 1957.67 1869.87 1981.68C1771.76 2016.43 1608.29 1958.67 1543.79 2019.06C1485.74 2073.41 1547.11 2164.34 1613.71 2221.52C1674.78 2273.97 1840.35 2265.87 1924.28 2300.58C2003.63 2333.41 1999.4 2424.01 2087.51 2417.5C2177.84 2410.82 2177.48 2319.05 2237.43 2275.49C2285.93 2240.25 2394.85 2238.38 2402.13 2188.92C2409.58 2138.29 2303.34 2108.55 2269.04 2060.76Z" fill="url(#paint2_linear)" fill-opacity="0.15"/>
</g>
<g filter="url(#filter3_f)">
<path d="M1394.75 4139.26C1320.89 4139.66 1318.91 4237.46 1403.85 4289.33C1556.48 4382.54 1722.01 4370.75 1886.54 4439.58C1920.43 4453.76 1888.44 4479.94 1912.79 4502.23C1935.22 4522.77 1975.24 4528.98 2003.85 4546.98C2058.54 4581.39 2098.28 4624.57 2156.11 4655.33C2249.86 4705.22 2363.39 4779.82 2442.1 4780.16C2508.23 4780.44 2432.76 4688.37 2458.26 4656.64C2489.33 4617.98 2693.86 4635.8 2605.37 4577.01C2452.55 4475.48 2220.03 4534.45 2103.69 4421.08C1990.58 4310.86 2275.41 4318.79 2234.58 4215.7C2210.57 4155.05 2053.12 4078.26 1959.85 4057.85C1859.13 4035.81 1791.95 4068.83 1763.28 4112.55C1736.4 4153.53 1884.62 4281.71 1809.46 4287.16C1703.08 4294.87 1507.77 4138.66 1394.75 4139.26Z" fill="url(#paint3_linear)" fill-opacity="0.15"/>
</g>
<g filter="url(#filter4_f)">
<path d="M1156.88 7803.13C1069.03 7817.07 1066.96 7948.16 1168.14 8002.08C1349.95 8098.96 1546.79 8053.16 1742.68 8115.29C1783.03 8128.08 1745.06 8168.89 1774.08 8194.27C1800.82 8217.65 1848.44 8218.68 1882.52 8237.55C1947.66 8273.62 1995.06 8324.12 2063.93 8354.75C2175.58 8404.4 2310.82 8483.51 2404.45 8469.67C2483.1 8458.05 2393.06 8348.68 2423.3 8301.63C2460.14 8244.32 2703.46 8231 2598.03 8168.48C2415.97 8060.51 2139.59 8181.55 2000.89 8051.13C1866.04 7924.34 2204.83 7883.22 2155.97 7752.83C2127.23 7676.12 1939.74 7602.07 1828.75 7591.71C1708.88 7580.54 1629.08 7636.88 1595.11 7700.52C1563.26 7760.18 1739.93 7904.61 1650.55 7925.54C1524.05 7955.16 1291.29 7781.81 1156.88 7803.13Z" fill="url(#paint4_linear)" fill-opacity="0.2"/>
</g>
<g filter="url(#filter5_f)">
<path d="M2038.52 -106.033C2096.68 -89.7096 2083.95 -3.12095 2148.47 -3.02516C2294.64 -2.80818 2438.21 -142.946 2569.45 -105.245C2661.02 -78.939 2535.59 35.6618 2532.62 107.327C2530.08 168.791 2608.08 235.863 2553.18 287.162C2490.01 346.194 2364.21 359.839 2263.7 358.63C2176.51 357.581 2126.63 268.548 2039.52 280.983C1976.02 290.048 2000.68 372.367 1950.7 403.309C1892.64 439.244 1771.9 510.697 1742.13 465.062C1699.01 398.961 1926.13 297.368 1850.06 249.038C1746.2 183.05 1489.69 341.829 1415.89 257.797C1354.03 187.351 1648.55 190.149 1750.3 135.432C1783.96 117.329 1781.11 81.9822 1794.34 54.2661C1816.7 7.46119 1803.29 -50.8261 1855.67 -85.2094C1902.81 -116.155 1982.97 -121.625 2038.52 -106.033Z" fill="url(#paint5_linear)" fill-opacity="0.5"/>
</g>
<g filter="url(#filter6_f)">
<path d="M1846.95 10097.2C1792.72 10147 1851.52 10198 1781.96 10240.9C1624.41 10338 1396.62 10336.9 1274.67 10449.9C1189.58 10528.7 1384.52 10524.3 1425.03 10571.6C1459.76 10612.1 1410.53 10710 1496.45 10708.8C1595.31 10707.5 1738.12 10633.4 1845.9 10565.9C1939.4 10507.3 1946.86 10413.1 2047.3 10363.8C2120.52 10327.9 2136.76 10400.9 2206.78 10389C2288.11 10375.2 2455.53 10344.2 2463.89 10293.1C2476 10219 2178.14 10299.9 2235.04 10216.2C2312.73 10101.9 2672.06 10040.9 2707.92 9934.21C2737.99 9844.76 2331.23 10108.5 2193 10138.4C2147.27 10148.2 2131.95 10122.1 2103.25 10111.8C2054.78 10094.5 2129.42 9979.07 2055.03 9990.18C1988.08 10000.2 1898.76 10049.6 1846.95 10097.2Z" fill="url(#paint6_linear)" fill-opacity="0.13"/>
</g>
<g filter="url(#filter7_f)">
<path d="M768.939 5116.92C713.328 5161.67 765.529 5205.95 695.829 5244.8C537.945 5332.79 320.56 5335.03 195.446 5436.53C108.149 5507.35 294.59 5500.7 329.616 5541.9C359.656 5577.23 305.123 5664.35 387.231 5662.12C481.716 5659.56 623.748 5592.12 731.84 5530.98C825.615 5477.94 839.997 5394.56 939.67 5349.65C1012.34 5316.92 1022.22 5381.12 1089.98 5369.63C1168.68 5356.29 1330.9 5326.57 1342.82 5281.31C1360.08 5215.74 1069.5 5291.32 1130.27 5216.61C1213.23 5114.6 1560.96 5055.65 1603.41 4960.89C1639 4881.45 1321.92 5060.16 1187.66 5088.5C1143.24 5097.87 1130.63 5074.96 1104.02 5066.29C1059.08 5051.65 1047.69 5008.64 975.819 5019.5C911.131 5029.27 822.059 5074.18 768.939 5116.92Z" fill="url(#paint7_linear)" fill-opacity="0.15"/>
</g>
<g filter="url(#filter8_f)">
<path d="M768.939 8981.92C713.328 9026.67 765.529 9070.95 695.829 9109.8C537.945 9197.79 320.56 9200.03 195.446 9301.53C108.149 9372.35 294.59 9365.7 329.616 9406.9C359.656 9442.23 305.123 9529.35 387.231 9527.12C481.716 9524.56 623.748 9457.12 731.84 9395.98C825.615 9342.94 839.997 9259.56 939.67 9214.65C1012.34 9181.92 1022.22 9246.12 1089.98 9234.63C1168.68 9221.29 1330.9 9191.57 1342.82 9146.31C1360.08 9080.74 1069.5 9156.32 1130.27 9081.61C1213.23 8979.6 1560.96 8920.65 1603.41 8825.89C1639 8746.45 1321.92 8925.16 1187.66 8953.5C1143.24 8962.87 1130.63 8939.96 1104.02 8931.29C1059.08 8916.65 1047.69 8873.64 975.819 8884.5C911.131 8894.27 822.059 8939.18 768.939 8981.92Z" fill="url(#paint8_linear)" fill-opacity="0.12"/>
</g>
<g filter="url(#filter9_f)">
<path d="M835.257 3376.76C771.994 3380.37 776.447 3457.9 708.132 3446.25C553.384 3419.86 416.014 3272.03 273.157 3280.92C173.479 3287.12 294.308 3409.48 289.983 3472.27C286.274 3526.12 196.712 3570.2 249.477 3624.75C310.196 3687.51 441.947 3722.24 548.464 3739.46C640.872 3754.4 702.947 3686.13 793.863 3712.76C860.146 3732.19 825.453 3799.21 875.144 3835.17C932.853 3876.94 1053.22 3960.96 1089.48 3926.74C1142.02 3877.15 912.185 3747.61 997.75 3719.46C1114.58 3681.02 1369.56 3865.58 1456.43 3806C1529.26 3756.06 1121.79 3698.03 1019.79 3632C986.044 3610.16 992.744 3579.97 981.621 3553.49C962.838 3508.77 1078.51 3467.48 1026.65 3428.09C979.976 3392.64 895.687 3373.32 835.257 3376.76Z" fill="url(#paint9_linear)" fill-opacity="0.15"/>
</g>
</g>
<defs>
<filter id="filter0_f" x="-35.3604" y="11003" width="2082.81" height="1227.5" filterUnits="userSpaceOnUse" color-interpolation-filters="sRGB">
<feFlood flood-opacity="0" result="BackgroundImageFix"/>
<feBlend mode="normal" in="SourceGraphic" in2="BackgroundImageFix" result="shape"/>
<feGaussianBlur stdDeviation="100" result="effect1_foregroundBlur"/>
</filter>
<filter id="filter1_f" x="-429.121" y="414.655" width="2062.49" height="1176.69" filterUnits="userSpaceOnUse" color-interpolation-filters="sRGB">
<feFlood flood-opacity="0" result="BackgroundImageFix"/>
<feBlend mode="normal" in="SourceGraphic" in2="BackgroundImageFix" result="shape"/>
<feGaussianBlur stdDeviation="125" result="effect1_foregroundBlur"/>
</filter>
<filter id="filter2_f" x="1270.61" y="1605.83" width="1381.89" height="1062.01" filterUnits="userSpaceOnUse" color-interpolation-filters="sRGB">
<feFlood flood-opacity="0" result="BackgroundImageFix"/>
<feBlend mode="normal" in="SourceGraphic" in2="BackgroundImageFix" result="shape"/>
<feGaussianBlur stdDeviation="125" result="effect1_foregroundBlur"/>
</filter>
<filter id="filter3_f" x="1159.72" y="3870.83" width="1647.69" height="1089.33" filterUnits="userSpaceOnUse" color-interpolation-filters="sRGB">
<feFlood flood-opacity="0" result="BackgroundImageFix"/>
<feBlend mode="normal" in="SourceGraphic" in2="BackgroundImageFix" result="shape"/>
<feGaussianBlur stdDeviation="90" result="effect1_foregroundBlur"/>
</filter>
<filter id="filter4_f" x="911.58" y="7410.29" width="1892.74" height="1240.98" filterUnits="userSpaceOnUse" color-interpolation-filters="sRGB">
<feFlood flood-opacity="0" result="BackgroundImageFix"/>
<feBlend mode="normal" in="SourceGraphic" in2="BackgroundImageFix" result="shape"/>
<feGaussianBlur stdDeviation="90" result="effect1_foregroundBlur"/>
</filter>
<filter id="filter5_f" x="1157.44" y="-364.479" width="1695.41" height="1094.3" filterUnits="userSpaceOnUse" color-interpolation-filters="sRGB">
<feFlood flood-opacity="0" result="BackgroundImageFix"/>
<feBlend mode="normal" in="SourceGraphic" in2="BackgroundImageFix" result="shape"/>
<feGaussianBlur stdDeviation="125" result="effect1_foregroundBlur"/>
</filter>
<filter id="filter6_f" x="1033.4" y="9695.78" width="1896.1" height="1233.02" filterUnits="userSpaceOnUse" color-interpolation-filters="sRGB">
<feFlood flood-opacity="0" result="BackgroundImageFix"/>
<feBlend mode="normal" in="SourceGraphic" in2="BackgroundImageFix" result="shape"/>
<feGaussianBlur stdDeviation="110" result="effect1_foregroundBlur"/>
</filter>
<filter id="filter7_f" x="-7.59082" y="4760.7" width="1793.77" height="1081.47" filterUnits="userSpaceOnUse" color-interpolation-filters="sRGB">
<feFlood flood-opacity="0" result="BackgroundImageFix"/>
<feBlend mode="normal" in="SourceGraphic" in2="BackgroundImageFix" result="shape"/>
<feGaussianBlur stdDeviation="90" result="effect1_foregroundBlur"/>
</filter>
<filter id="filter8_f" x="-7.59082" y="8625.7" width="1793.77" height="1081.47" filterUnits="userSpaceOnUse" color-interpolation-filters="sRGB">
<feFlood flood-opacity="0" result="BackgroundImageFix"/>
<feBlend mode="normal" in="SourceGraphic" in2="BackgroundImageFix" result="shape"/>
<feGaussianBlur stdDeviation="90" result="effect1_foregroundBlur"/>
</filter>
<filter id="filter9_f" x="52.877" y="3100.54" width="1592.21" height="1014.21" filterUnits="userSpaceOnUse" color-interpolation-filters="sRGB">
<feFlood flood-opacity="0" result="BackgroundImageFix"/>
<feBlend mode="normal" in="SourceGraphic" in2="BackgroundImageFix" result="shape"/>
<feGaussianBlur stdDeviation="90" result="effect1_foregroundBlur"/>
</filter>
<linearGradient id="paint0_linear" x1="256.829" y1="11665.4" x2="1276.88" y2="12116.4" gradientUnits="userSpaceOnUse">
<stop stop-color="#FF5610" stop-opacity="0.47"/>
<stop offset="0.149109" stop-color="#FB722C"/>
<stop offset="0.306297" stop-color="#FFEA54"/>
<stop offset="0.467975" stop-color="#00B471"/>
<stop offset="0.807292" stop-color="#1568AB"/>
<stop offset="1" stop-color="#A765DA"/>
</linearGradient>
<linearGradient id="paint1_linear" x1="1475.88" y1="794.758" x2="386.368" y2="727.68" gradientUnits="userSpaceOnUse">
<stop stop-color="#FF5610"/>
<stop offset="0.197917" stop-color="#FB722C"/>
<stop offset="0.395833" stop-color="#FFEA54"/>
<stop offset="0.588542" stop-color="#00B471"/>
<stop offset="0.807292" stop-color="#1568AB"/>
<stop offset="1" stop-color="#B68DD6"/>
</linearGradient>
<linearGradient id="paint2_linear" x1="1444" y1="1960.49" x2="2433.08" y2="2219.93" gradientUnits="userSpaceOnUse">
<stop stop-color="#FF5610"/>
<stop offset="0.163224" stop-color="#FB722C"/>
<stop offset="0.449665" stop-color="#FFEA54"/>
<stop offset="0.645906" stop-color="#00B471"/>
<stop offset="0.746827" stop-color="#4093D6"/>
<stop offset="1" stop-color="#B68DD6"/>
</linearGradient>
<linearGradient id="paint3_linear" x1="2488.1" y1="4856.33" x2="1590.88" y2="4202.29" gradientUnits="userSpaceOnUse">
<stop stop-color="#FF5610"/>
<stop offset="0.197917" stop-color="#FB722C"/>
<stop offset="0.395833" stop-color="#FFEA54"/>
<stop offset="0.588542" stop-color="#00B471"/>
<stop offset="0.807292" stop-color="#1568AB"/>
<stop offset="1" stop-color="#B68DD6"/>
</linearGradient>
<linearGradient id="paint4_linear" x1="1173" y1="7876" x2="2137.37" y2="7931.14" gradientUnits="userSpaceOnUse">
<stop stop-color="#FF5610" stop-opacity="0.31"/>
<stop offset="0.230194" stop-color="#FB722C" stop-opacity="0.81"/>
<stop offset="0.431497" stop-color="#FFEA54"/>
<stop offset="0.617043" stop-color="#00B471"/>
<stop offset="0.807292" stop-color="#1568AB"/>
<stop offset="1" stop-color="#B68DD6"/>
</linearGradient>
<linearGradient id="paint5_linear" x1="2471.5" y1="-75.4999" x2="1623.75" y2="-4.68825" gradientUnits="userSpaceOnUse">
<stop stop-color="#FF5610"/>
<stop offset="0.197917" stop-color="#FF7934"/>
<stop offset="0.367268" stop-color="#FFEA54"/>
<stop offset="0.548409" stop-color="#00B471"/>
<stop offset="0.778566" stop-color="#1568AB"/>
<stop offset="1" stop-color="#B27CDC"/>
</linearGradient>
<linearGradient id="paint6_linear" x1="1445.5" y1="10796.7" x2="1626.57" y2="9945.92" gradientUnits="userSpaceOnUse">
<stop stop-color="#FF5610"/>
<stop offset="0.197917" stop-color="#FF7934"/>
<stop offset="0.403275" stop-color="#FFEA54"/>
<stop offset="0.514953" stop-color="#00B471"/>
<stop offset="0.705801" stop-color="#1568AB"/>
<stop offset="1" stop-color="#B68DD6"/>
</linearGradient>
<linearGradient id="paint7_linear" x1="231.148" y1="5607.99" x2="1517.11" y2="5053.47" gradientUnits="userSpaceOnUse">
<stop stop-color="#FF5610"/>
<stop offset="0.197917" stop-color="#FF7934"/>
<stop offset="0.395833" stop-color="#FFEA54"/>
<stop offset="0.588542" stop-color="#00B471"/>
<stop offset="0.807292" stop-color="#1568AB"/>
<stop offset="1" stop-color="#B68DD6"/>
</linearGradient>
<linearGradient id="paint8_linear" x1="231.148" y1="9472.99" x2="1517.11" y2="8918.47" gradientUnits="userSpaceOnUse">
<stop stop-color="#FF5610"/>
<stop offset="0.197917" stop-color="#FF7934"/>
<stop offset="0.395833" stop-color="#FFEA54"/>
<stop offset="0.588542" stop-color="#00B471"/>
<stop offset="0.807292" stop-color="#1568AB"/>
<stop offset="1" stop-color="#B68DD6"/>
</linearGradient>
<linearGradient id="paint9_linear" x1="252.174" y1="3432.21" x2="1269.64" y2="3282.03" gradientUnits="userSpaceOnUse">
<stop stop-color="#FF5610"/>
<stop offset="0.197917" stop-color="#FF7934"/>
<stop offset="0.39428" stop-color="#FFEA54"/>
<stop offset="0.571246" stop-color="#00B471"/>
<stop offset="0.717457" stop-color="#1568AB"/>
<stop offset="1" stop-color="#B68DD6"/>
</linearGradient>
<clipPath id="clip0">
<rect width="2800" height="12707" fill="white"/>
</clipPath>
</defs>
</svg>
